<svg xmlns="http://www.w3.org/2000/svg" viewBox="0 0 100 120">
  <rect width="100" height="120" fill="#F8F6F1"/>
  <path fill-rule="evenodd" clip-rule="evenodd" d="M30 6H62C79.6731 6 94 20.3269 94 38C94 55.6731 79.6731 70 62 70H46V114H30V6ZM46 22V54H62C70.8366 54 78 46.8366 78 38C78 29.1634 70.8366 22 62 22H46Z" fill="#6E1F2A"/>
  <rect x="23" y="94" width="5" height="14" fill="#A88A52"/>
  <rect x="30" y="86" width="5" height="22" fill="#A88A52"/>
  <rect x="37" y="78" width="5" height="30" fill="#A88A52"/>
  <rect x="44" y="70" width="5" height="38" fill="#C6A870"/>
  <rect x="15.5" y="97.5" width="7" height="7" transform="rotate(45 19 101)" fill="#C6A870"/>
</svg>
